Coordinates
version=1
nRows=16
nColumns=40
inDegrees=yes

Units are S.I. units (second, meters, Newtons, ...)
Angles are in degrees.

endheader
time	pelvis_tilt	pelvis_list	pelvis_rotation	pelvis_tx	pelvis_ty	pelvis_tz	hip_flexion_r	hip_adduction_r	hip_rotation_r	knee_angle_r	knee_angle_r_beta	ankle_angle_r	subtalar_angle_r	mtp_angle_r	hip_flexion_l	hip_adduction_l	hip_rotation_l	knee_angle_l	knee_angle_l_beta	ankle_angle_l	subtalar_angle_l	mtp_angle_l	lumbar_extension	lumbar_bending	lumbar_rotation	arm_flex_r	arm_add_r	arm_rot_r	elbow_flex_r	pro_sup_r	wrist_flex_r	wrist_dev_r	arm_flex_l	arm_add_l	arm_rot_l	elbow_flex_l	pro_sup_l	wrist_flex_l	wrist_dev_l
      6.96750000	     -3.54116491	     -4.38068258	     -6.63933439	      0.98722383	      0.92829174	      0.46393033	     18.89650997	      2.14581618	     -4.97392972	     18.34162063	     18.34162063	      6.53595918	      5.85335678	     -4.14801969	     -0.05432577	     -7.70534867	    -13.89432302	     16.96375662	     16.96375662	     19.48841360	     -7.64762551	      2.58573795	     -7.82253287	      6.86833525	     -0.69876036	    -15.67523823	    -13.18685803	     -8.57247500	     30.58551062	     46.02169932	      0.00000000	      0.00000000	     36.16270472	    -20.93919133	    -11.43158559	     71.26296660	     48.42539159	      0.00000000	      0.00000000
      6.98857143	     -3.29505140	     -4.33044097	     -6.02238256	      0.98873741	      0.92910886	      0.46879509	     18.20829292	      2.25017079	     -5.36907475	     18.41355497	     18.41355497	      7.10668637	      5.65459392	     -4.32492469	      0.01104915	     -8.19308131	    -13.38386336	     18.12064914	     18.12064914	     19.10428591	     -7.75116212	      2.47902853	     -8.05850418	      6.60201847	     -0.51861420	    -14.59216500	    -13.16270621	     -8.52233411	     30.87204258	     46.01565870	      0.00000000	      0.00000000	     34.63030723	    -19.88382697	    -11.00050702	     70.59549061	     48.37010099	      0.00000000	      0.00000000
      7.00964286	     -3.37906809	     -4.72072515	     -5.22720050	      0.98944761	      0.92912563	      0.47358168	     17.76020539	      2.81095788	     -6.20508157	     18.23959274	     18.23959274	      7.49554738	      5.63548939	     -4.46905126	      1.62685213	     -9.49577173	    -12.36291637	     21.45557288	     21.45557288	     18.80071327	     -8.66297913	      1.69452668	     -8.01405778	      6.90332914	     -0.68304606	    -13.09770154	    -13.33651216	     -8.43077844	     30.88165525	     46.02343124	      0.00000000	      0.00000000	     33.16136003	    -19.34635536	    -10.51947334	     69.17736993	     48.29490879	      0.00000000	      0.00000000
      7.03071429	     -3.32603914	     -4.82719787	     -4.46780900	      0.99011618	      0.92938755	      0.47807026	     17.27712890	      3.06742171	     -6.86510300	     18.19550385	     18.19550385	      7.87858404	      5.50489833	     -4.62420549	      3.20528762	    -10.41871718	    -11.32987032	     24.84008814	     24.84008814	     18.16096054	     -9.47515304	      0.83236290	     -8.06198350	      6.86845346	     -0.73968971	    -11.36214948	    -13.40606457	     -8.29740133	     30.81241639	     46.03372273	      0.00000000	      0.00000000	     31.42758865	    -18.47345624	     -9.89354109	     67.56191810	     48.20398634	      0.00000000	      0.00000000
      7.05178571	     -3.29552356	     -4.85263232	     -3.66330699	      0.99053108	      0.92944604	      0.48218394	     16.90949940	      3.23132039	     -7.42579250	     18.26197384	     18.26197384	      8.26994691	      5.19582656	     -4.98501256	      5.10644879	    -11.16694274	     -9.91930435	     28.52273101	     28.52273101	     16.45223150	    -11.06916294	     -1.81044877	     -7.91489047	      6.72554335	     -0.79716024	     -8.50990952	    -13.41952906	     -7.68319200	     27.99996576	     46.14833143	      0.00000000	      0.00000000	     30.10840238	    -17.55812321	     -8.48151843	     63.89100413	     47.99006557	      0.00000000	      0.00000000
      7.07285714	     -3.06042595	     -4.97577316	     -2.82825587	      0.99081898	      0.92961415	      0.48593732	     16.31995627	      3.47134146	     -8.04730618	     18.30796442	     18.30796442	      8.65033832	      4.91672700	     -5.12024821	      7.24694546	    -11.97788828	     -8.35224975	     32.99179414	     32.99179414	     15.32136437	    -12.38297555	     -2.55280680	     -8.22042568	      6.75535247	     -0.72213361	     -6.56209687	    -13.56789590	     -7.70298860	     28.43982966	     46.15058236	      0.00000000	      0.00000000	     28.00434636	    -16.47340602	     -7.89754803	     62.34659205	     47.90025404	      0.00000000	      0.00000000
      7.09392857	     -2.96270315	     -4.96308441	     -1.97350102	      0.99077848	      0.92932827	      0.48925911	     16.07578430	      3.56476058	     -8.49061561	     18.64678615	     18.64678615	      9.09571717	      4.28683207	     -5.35685163	      9.81584119	    -12.43251907	     -6.42014867	     37.68710179	     37.68710179	     13.80931967	    -14.16435332	     -3.10273056	     -8.27262706	      6.62640733	     -0.95290260	     -4.11318943	    -13.68075460	     -7.68158715	     28.45176011	     46.17427851	      0.00000000	      0.00000000	     25.83390784	    -15.52641240	     -7.07154208	     59.46491942	     47.76818729	      0.00000000	      0.00000000
      7.11500000	     -2.58710297	     -4.97935695	     -1.09147554	      0.99068688	      0.92920006	      0.49217553	     15.61058293	      3.67952570	     -8.82797324	     19.11352889	     19.11352889	      9.52023259	      3.40843074	     -5.62240331	     12.22488240	    -12.71588117	     -4.39313712	     42.45277693	     42.45277693	     12.46327949	    -15.79099647	     -2.65138412	     -8.60035771	      6.55291260	     -0.73098776	     -1.22920612	    -13.81881816	     -7.66750019	     27.06613946	     46.26918110	      0.00000000	      0.00000000	     24.46172613	    -14.27902350	     -5.72115196	     54.84000397	     47.56661049	      0.00000000	      0.00000000
      7.13607143	     -2.21780272	     -5.01715460	     -0.20767890	      0.99048262	      0.92877468	      0.49476611	     15.23006160	      3.82038762	     -9.09316301	     19.69225291	     19.69225291	      9.99727543	      2.40022211	     -5.80052659	     14.81176415	    -12.87400073	     -2.39507119	     47.31059783	     47.31059783	     11.89048099	    -16.70414108	     -0.19060296	     -8.94314825	      6.52571260	     -0.44236550	      1.50858406	    -13.99338347	     -8.12301991	     26.42855023	     46.36811099	      0.00000000	      0.00000000	     22.76267706	    -12.99450511	     -4.44344968	     50.63331705	     47.37151931	      0.00000000	      0.00000000
      7.15714286	     -1.73243894	     -5.12730758	      0.68211816	      0.99025013	      0.92817554	      0.49701734	     14.81910996	      4.00179629	     -9.46855751	     20.44058431	     20.44058431	     10.54152927	      1.52016018	     -6.01381717	     17.18018398	    -13.01968733	     -0.59636378	     51.64159828	     51.64159828	     10.60634384	    -17.69241599	      0.34867438	     -9.50877959	      6.60003376	     -0.23888140	      3.97490269	    -14.34121339	     -8.27750002	     27.25417480	     46.36896136	      0.00000000	      0.00000000	     20.14317774	    -11.82750152	     -3.83453125	     48.55664777	     47.26504536	      0.00000000	      0.00000000
      7.17821429	     -1.35245388	     -4.98618656	      1.51764695	      0.98978627	      0.92733183	      0.49890844	     14.71752957	      3.99660286	     -9.24956090	     21.50208121	     21.50208121	     11.17314405	     -0.26939557	     -5.88884585	     19.75355883	    -12.55776176	      1.28797002	     55.92663777	     55.92663777	     11.80083291	    -17.92261133	      7.20294978	     -9.76340852	      6.39808430	      0.00348014	      7.21651569	    -14.46560581	     -8.95340533	     26.36150237	     46.49604549	      0.00000000	      0.00000000	     18.90856864	    -10.60212890	     -2.18703743	     42.01369387	     47.01560621	      0.00000000	      0.00000000
      7.19928571	     -0.91770613	     -4.95479668	      2.35141876	      0.98935711	      0.92621455	      0.50063660	     14.60920995	      4.07224043	     -9.23708739	     22.66195658	     22.66195658	     11.81285230	     -1.77873458	     -5.97984500	     21.94796826	    -12.32577999	      2.67612068	     59.15244648	     59.15244648	     11.23918315	    -18.53365788	      8.66838245	    -10.20284687	      6.32221394	     -0.16767798	     10.15537875	    -14.62781020	     -9.30660837	     27.46003514	     46.50309133	      0.00000000	      0.00000000	     16.09691035	     -9.81832011	     -1.51252650	     39.12665597	     46.88327257	      0.00000000	      0.00000000
      7.22035714	     -0.42661181	     -4.91913014	      3.16191237	      0.98881047	      0.92507868	      0.50209706	     14.46129078	      4.17202134	     -9.11846763	     23.84759253	     23.84759253	     12.56023897	     -3.31474655	     -5.52041941	     24.05369210	    -11.92496875	      4.00761446	     61.94823747	     61.94823747	     12.49166556	    -18.77024304	     14.25338430	    -10.67064302	      6.23327832	      0.39721208	     13.17235408	    -14.91097119	    -10.55685507	     27.39400901	     46.62162996	      0.00000000	      0.00000000	     14.48774641	     -8.71632827	      0.05762117	     33.92141062	     46.62168729	      0.00000000	      0.00000000
      7.24142857	     -0.04847477	     -4.92843776	      3.97006890	      0.98821680	      0.92355021	      0.50346922	     14.48130879	      4.33185376	     -8.99285598	     25.07617229	     25.07617229	     13.14427000	     -5.02702767	     -5.52339393	     25.95988292	    -11.76046685	      4.84446361	     63.64272686	     63.64272686	     12.35882494	    -19.10189331	     14.99959677	    -11.04309718	      6.17668228	      0.35388308	     16.16165809	    -15.11310268	    -10.80134251	     28.71662934	     46.60764525	      0.00000000	      0.00000000	     11.54199244	     -8.08299522	      0.57172245	     31.49630959	     46.49921041	      0.00000000	      0.00000000
      7.26250000	      0.34897454	     -4.92703787	      4.76892157	      0.98759172	      0.92208431	      0.50461436	     14.43140371	      4.52444839	     -8.76322750	     26.19173048	     26.19173048	     13.68353466	     -6.84830290	     -5.28275959	     27.64613317	    -11.59024975	      5.44274510	     64.55050600	     64.55050600	     12.78193538	    -19.29329571	     16.51062496	    -11.40158006	      6.09981763	      0.34858077	     19.30184024	    -15.29059803	    -11.04242426	     29.92416622	     46.59708224	      0.00000000	      0.00000000	      8.82989066	     -7.56466971	      1.24325744	     28.64973931	     46.35211113	      0.00000000	      0.00000000
      7.28357143	      0.62687624	     -4.94043218	      5.56692748	      0.98681693	      0.92059035	      0.50551788	     14.47095603	      4.71542918	     -8.58556420	     27.22166861	     27.22166861	     14.24713469	     -8.50495910	     -4.94361377	     29.21829751	    -11.40135881	      5.87338538	     64.55915720	     64.55915720	     13.45692408	    -19.39914641	     18.23059952	    -11.69758363	      6.04891047	      0.35684238	     22.46106519	    -15.53426931	    -11.30051132	     31.17444261	     46.58372070	      0.00000000	      0.00000000	      6.16244432	     -7.10435168	      1.99289024	     25.85729355	     46.18445997	      0.00000000	      0.00000000
